<svg aria-hidden="true" style="position: absolute; width: 0; height: 0; overflow: hidden;" version="1.1" xmlns="http://www.w3.org/2000/svg" xmlns:xlink="http://www.w3.org/1999/xlink">
<defs>
<symbol id="companyLogo" viewBox="0 0 342 32">
<path fill="#061551" style="fill: var(--color1, #061551)" d="M0 26.46v-26.46h27.080v4.48h-20.94v5.92h12.24v4.5h-12.24v6.56h21.2v5h-27.34z"></path>
<path fill="#061551" style="fill: var(--color1, #061551)" d="M36.24 9.88c0-1.96 0.36-3.32 1.12-4.020 0.76-0.72 2.26-1.1 4.5-1.1h16.78c2.26 0 3.76 0.38 4.52 1.1 0.74 0.7 1.12 2.060 1.12 4.020v11.38c0 1.98-0.4 3.34-1.18 4.060s-2.26 1.1-4.46 1.14h-2.54l2.84 5.54h-5.24l-2.44-5.54h-9.4c-2.18 0-3.68-0.38-4.46-1.1s-1.16-2.080-1.16-4.1v-11.38zM41.5 22.3h7.94l-2.24-4.66 3.8-1.46 2.98 6.12h5v-13.56h-17.48v13.56z"></path>
<path fill="#061551" style="fill: var(--color1, #061551)" d="M78.66 4.76v17.64h15.1v-17.64h5.32v16.56c0 1.98-0.4 3.32-1.18 4.040-0.8 0.72-2.3 1.1-4.52 1.1h-14.36c-2.2 0-3.68-0.36-4.46-1.080-0.76-0.72-1.16-2.080-1.16-4.060v-16.56h5.26z"></path>
<path fill="#061551" style="fill: var(--color1, #061551)" d="M105.42 26.46l12.86-21.7h5.080l13.060 21.7h-5.92l-2.72-4.76h-14.36l-2.74 4.76h-5.26zM115.68 17.74h9.94l-5.060-9.040-4.88 9.040z"></path>
<path fill="#061551" style="fill: var(--color1, #061551)" d="M156.080 4.72v21.74h-6.18v-21.74h-12.12v-4.72h30.48v4.72h-12.18z"></path>
<path fill="#061551" style="fill: var(--color1, #061551)" d="M170.56 26.46l12.86-21.7h5.080l13.080 21.7h-5.94l-2.72-4.76h-14.36l-2.72 4.76h-5.28zM180.82 17.74h9.94l-5.040-9.040-4.9 9.040z"></path>
<path fill="#061551" style="fill: var(--color1, #061551)" d="M206.98 26.46v-21.7h5.34v17.64h17v4.060h-22.34z"></path>
<path fill="#061551" style="fill: var(--color1, #061551)" d="M235.26 26.46v-21.7h23.26v3.84h-17.92v4.72h10.44v3.74h-10.44v5.34h18.2v4.060h-23.54z"></path>
<path fill="#061551" style="fill: var(--color1, #061551)" d="M266.42 26.46v-21.7h3.64l18.38 14.4v-14.4h4.78v21.7h-3.66l-18.34-14.62v14.62h-4.8z"></path>
<path fill="#061551" style="fill: var(--color1, #061551)" d="M315.82 8.64v17.82h-5.26v-17.82h-10.48v-3.88h26.24v3.88h-10.5z"></path>
<path fill="#ff7900" style="fill: var(--color2, #ff7900)" d="M338.64 18.5h0.92c0.46 0 0.76 0.14 0.96 0.4 0.18 0.26 0.28 0.76 0.28 1.5v4.16c0 0.8-0.12 1.32-0.32 1.54-0.2 0.24-0.8 0.36-1.84 0.36h-4.58c-0.46 0-0.78-0.14-0.96-0.4-0.2-0.26-0.28-0.78-0.28-1.5v-4.16c0-0.78 0.1-1.3 0.3-1.54s0.82-0.36 1.86-0.36h3.66z"></path>
</symbol>
<symbol id="menu" viewBox="0 0 32 32">
<path stroke-linejoin="round" stroke-linecap="butt" stroke-miterlimit="4" stroke-width="2.6667" d="M4 16h24M4 8h24M4 24h24"></path>
</symbol>
<symbol id="icon-bg-pattern" viewBox="0 0 44 32">
<path fill="none" opacity="0.2" stroke="#8643ff" style="stroke: var(--color1, #8643ff)" stroke-linejoin="miter" stroke-linecap="butt" stroke-miterlimit="4" stroke-width="0.4051" d="M43.303 1.806l-0.858-1.025"></path>
<path fill="none" opacity="0.2" stroke="#8643ff" style="stroke: var(--color1, #8643ff)" stroke-linejoin="miter" stroke-linecap="butt" stroke-miterlimit="4" stroke-width="0.4051" d="M43.303 30.363l-0.858 1.025"></path>
<path fill="none" opacity="0.2" stroke="#8643ff" style="stroke: var(--color1, #8643ff)" stroke-linejoin="miter" stroke-linecap="butt" stroke-miterlimit="4" stroke-width="0.4051" d="M43.387 27.477l-1.023 0.86"></path>
<path fill="none" opacity="0.2" stroke="#8643ff" style="stroke: var(--color1, #8643ff)" stroke-linejoin="miter" stroke-linecap="butt" stroke-miterlimit="4" stroke-width="0.4051" d="M43.429 24.611l-1.157 0.669"></path>
<path fill="none" opacity="0.2" stroke="#8643ff" style="stroke: var(--color1, #8643ff)" stroke-linejoin="miter" stroke-linecap="butt" stroke-miterlimit="4" stroke-width="0.4051" d="M43.47 21.76l-1.255 0.457"></path>
<path fill="none" opacity="0.2" stroke="#8643ff" style="stroke: var(--color1, #8643ff)" stroke-linejoin="miter" stroke-linecap="butt" stroke-miterlimit="4" stroke-width="0.4051" d="M43.512 18.92l-1.315 0.232"></path>
<path fill="none" opacity="0.2" stroke="#8643ff" style="stroke: var(--color1, #8643ff)" stroke-linejoin="miter" stroke-linecap="butt" stroke-miterlimit="4" stroke-width="0.4051" d="M43.512 16.085h-1.336"></path>
<path fill="none" opacity="0.2" stroke="#8643ff" style="stroke: var(--color1, #8643ff)" stroke-linejoin="miter" stroke-linecap="butt" stroke-miterlimit="4" stroke-width="0.4051" d="M43.512 13.249l-1.315-0.232"></path>
</symbol>
<symbol id="icon-companyLogo" viewBox="0 0 342 32">
<path fill="#061551" style="fill: var(--color2, #061551)" d="M0 26.46v-26.46h27.080v4.48h-20.94v5.92h12.24v4.5h-12.24v6.56h21.2v5h-27.34z"></path>
<path fill="#061551" style="fill: var(--color2, #061551)" d="M36.24 9.88c0-1.96 0.36-3.32 1.12-4.020 0.76-0.72 2.26-1.1 4.5-1.1h16.78c2.26 0 3.76 0.38 4.52 1.1 0.74 0.7 1.12 2.060 1.12 4.020v11.38c0 1.98-0.4 3.34-1.18 4.060s-2.26 1.1-4.46 1.14h-2.54l2.84 5.54h-5.24l-2.44-5.54h-9.4c-2.18 0-3.68-0.38-4.46-1.1s-1.16-2.080-1.16-4.1v-11.38zM41.5 22.3h7.94l-2.24-4.66 3.8-1.46 2.98 6.12h5v-13.56h-17.48v13.56z"></path>
<path fill="#061551" style="fill: var(--color2, #061551)" d="M78.66 4.76v17.64h15.1v-17.64h5.32v16.56c0 1.98-0.4 3.32-1.18 4.040-0.8 0.72-2.3 1.1-4.52 1.1h-14.36c-2.2 0-3.68-0.36-4.46-1.080-0.76-0.72-1.16-2.080-1.16-4.060v-16.56h5.26z"></path>
<path fill="#061551" style="fill: var(--color2, #061551)" d="M105.42 26.46l12.86-21.7h5.080l13.060 21.7h-5.92l-2.72-4.76h-14.36l-2.74 4.76h-5.26zM115.68 17.74h9.94l-5.060-9.040-4.88 9.040z"></path>
<path fill="#061551" style="fill: var(--color2, #061551)" d="M156.080 4.72v21.74h-6.18v-21.74h-12.12v-4.72h30.48v4.72h-12.18z"></path>
<path fill="#061551" style="fill: var(--color2, #061551)" d="M170.56 26.46l12.86-21.7h5.080l13.080 21.7h-5.94l-2.72-4.76h-14.36l-2.72 4.76h-5.28zM180.82 17.74h9.94l-5.040-9.040-4.9 9.040z"></path>
<path fill="#061551" style="fill: var(--color2, #061551)" d="M206.98 26.46v-21.7h5.34v17.64h17v4.060h-22.34z"></path>
<path fill="#061551" style="fill: var(--color2, #061551)" d="M235.26 26.46v-21.7h23.26v3.84h-17.92v4.72h10.44v3.74h-10.44v5.34h18.2v4.060h-23.54z"></path>
<path fill="#061551" style="fill: var(--color2, #061551)" d="M266.42 26.46v-21.7h3.64l18.38 14.4v-14.4h4.78v21.7h-3.66l-18.34-14.62v14.62h-4.8z"></path>
<path fill="#061551" style="fill: var(--color2, #061551)" d="M315.82 8.64v17.82h-5.26v-17.82h-10.48v-3.88h26.24v3.88h-10.5z"></path>
<path fill="#ff7900" style="fill: var(--color3, #ff7900)" d="M338.64 18.5h0.92c0.46 0 0.76 0.14 0.96 0.4 0.18 0.26 0.28 0.76 0.28 1.5v4.16c0 0.8-0.12 1.32-0.32 1.54-0.2 0.24-0.8 0.36-1.84 0.36h-4.58c-0.46 0-0.78-0.14-0.96-0.4-0.2-0.26-0.28-0.78-0.28-1.5v-4.16c0-0.78 0.1-1.3 0.3-1.54s0.82-0.36 1.86-0.36h3.66z"></path>
</symbol>
<symbol id="icon-menu" viewBox="0 0 32 32">
<path stroke-linejoin="round" stroke-linecap="butt" stroke-miterlimit="4" stroke-width="2.6667" d="M4 16h24M4 8h24M4 24h24"></path>
</symbol>
<symbol id="icon-x" viewBox="0 0 32 32">
<path stroke-linejoin="round" stroke-linecap="round" stroke-miterlimit="4" stroke-width="2.6667" d="M24 8l-16 16"></path>
<path stroke-linejoin="round" stroke-linecap="round" stroke-miterlimit="4" stroke-width="2.6667" d="M8 8l16 16"></path>
</symbol>
<symbol id="icon-Line-pattern" viewBox="0 0 44 32">
<path fill="none" opacity="0.2" stroke="#8643ff" style="stroke: var(--color1, #8643ff)" stroke-linejoin="miter" stroke-linecap="butt" stroke-miterlimit="4" stroke-width="0.4051" d="M43.303 1.806l-0.858-1.025"></path>
<path fill="none" opacity="0.2" stroke="#8643ff" style="stroke: var(--color1, #8643ff)" stroke-linejoin="miter" stroke-linecap="butt" stroke-miterlimit="4" stroke-width="0.4051" d="M43.303 30.363l-0.858 1.025"></path>
<path fill="none" opacity="0.2" stroke="#8643ff" style="stroke: var(--color1, #8643ff)" stroke-linejoin="miter" stroke-linecap="butt" stroke-miterlimit="4" stroke-width="0.4051" d="M43.387 27.477l-1.023 0.86"></path>
<path fill="none" opacity="0.2" stroke="#8643ff" style="stroke: var(--color1, #8643ff)" stroke-linejoin="miter" stroke-linecap="butt" stroke-miterlimit="4" stroke-width="0.4051" d="M43.429 24.611l-1.157 0.669"></path>
<path fill="none" opacity="0.2" stroke="#8643ff" style="stroke: var(--color1, #8643ff)" stroke-linejoin="miter" stroke-linecap="butt" stroke-miterlimit="4" stroke-width="0.4051" d="M43.47 21.76l-1.255 0.457"></path>
<path fill="none" opacity="0.2" stroke="#8643ff" style="stroke: var(--color1, #8643ff)" stroke-linejoin="miter" stroke-linecap="butt" stroke-miterlimit="4" stroke-width="0.4051" d="M43.512 18.92l-1.315 0.232"></path>
<path fill="none" opacity="0.2" stroke="#8643ff" style="stroke: var(--color1, #8643ff)" stroke-linejoin="miter" stroke-linecap="butt" stroke-miterlimit="4" stroke-width="0.4051" d="M43.512 16.085h-1.336"></path>
<path fill="none" opacity="0.2" stroke="#8643ff" style="stroke: var(--color1, #8643ff)" stroke-linejoin="miter" stroke-linecap="butt" stroke-miterlimit="4" stroke-width="0.4051" d="M43.512 13.249l-1.315-0.232"></path>
</symbol>
<symbol id="icon-image-8" viewBox="0 0 32 32">
<path d="M5 0h22c2.761 0 5 2.239 5 5v22c0 2.761-2.239 5-5 5h-22c-2.761 0-5-2.239-5-5v-22c0-2.761 2.239-5 5-5z"></path>
</symbol>
<symbol id="icon-TheBunkering" viewBox="0 0 171 32">
<path fill="#2f4faa" style="fill: var(--color2, #2f4faa)" d="M41.52 16.92c-0.38 0-0.69-0.11-0.92-0.34s-0.34-0.53-0.34-0.9v-10.43h-3.51c-0.78 0-1.16-0.34-1.16-1.030 0-0.68 0.38-1.030 1.16-1.030h9.53c0.77 0 1.15 0.35 1.15 1.030 0 0.69-0.38 1.030-1.15 1.030h-3.52v10.43c0 0.37-0.11 0.67-0.34 0.9-0.22 0.23-0.52 0.34-0.9 0.34z"></path>
<path fill="#2f4faa" style="fill: var(--color2, #2f4faa)" d="M55.2 7.14c2.22 0 3.33 1.29 3.33 3.88v4.76c0 0.36-0.11 0.65-0.33 0.86-0.21 0.2-0.5 0.3-0.87 0.3-0.38 0-0.68-0.1-0.9-0.3-0.22-0.21-0.33-0.5-0.33-0.86v-4.76c0-0.68-0.14-1.18-0.41-1.5-0.28-0.31-0.71-0.47-1.3-0.47-0.7 0-1.25 0.22-1.67 0.66s-0.63 1.020-0.63 1.76v4.31c0 0.36-0.11 0.65-0.33 0.86-0.22 0.2-0.51 0.3-0.89 0.3-0.37 0-0.66-0.1-0.88-0.3-0.21-0.21-0.32-0.5-0.32-0.86v-11.56c0-0.33 0.11-0.6 0.33-0.81 0.23-0.21 0.52-0.32 0.89-0.32 0.36 0 0.65 0.1 0.87 0.3s0.33 0.46 0.33 0.79v4.5c0.32-0.49 0.75-0.88 1.28-1.14 0.54-0.27 1.15-0.4 1.83-0.4z"></path>
<path fill="#2f4faa" style="fill: var(--color2, #2f4faa)" d="M69.45 14.24c0.22 0 0.39 0.080 0.53 0.25 0.13 0.17 0.2 0.39 0.2 0.67 0 0.4-0.24 0.74-0.72 1-0.44 0.25-0.93 0.46-1.48 0.61-0.56 0.14-1.090 0.21-1.59 0.21-1.52 0-2.74-0.44-3.63-1.32-0.88-0.87-1.33-2.070-1.33-3.6 0-0.96 0.2-1.81 0.59-2.55 0.39-0.75 0.93-1.34 1.63-1.75s1.5-0.62 2.38-0.62c0.86 0 1.6 0.19 2.23 0.57 0.63 0.37 1.12 0.9 1.46 1.58 0.35 0.68 0.53 1.48 0.53 2.4 0 0.57-0.25 0.85-0.73 0.85h-5.7c0.070 0.88 0.32 1.54 0.74 1.95 0.43 0.42 1.050 0.63 1.86 0.63 0.42 0 0.78-0.050 1.1-0.16 0.31-0.1 0.67-0.24 1.070-0.42 0.39-0.2 0.68-0.3 0.86-0.3zM66.090 8.84c-0.66 0-1.18 0.21-1.57 0.62s-0.63 1-0.7 1.78h4.37c-0.030-0.79-0.22-1.39-0.59-1.79-0.36-0.41-0.86-0.61-1.51-0.61z"></path>
<path fill="#2f4faa" style="fill: var(--color2, #2f4faa)" d="M81.81 9.79c0.79 0.22 1.4 0.62 1.83 1.2 0.43 0.57 0.64 1.28 0.64 2.12 0 1.16-0.41 2.070-1.24 2.73-0.83 0.65-1.97 0.98-3.43 0.98h-4.99c-0.38 0-0.67-0.1-0.88-0.3s-0.32-0.5-0.32-0.88v-11.26c0-0.38 0.11-0.67 0.32-0.87 0.21-0.21 0.5-0.32 0.88-0.32h4.79c1.42 0 2.53 0.32 3.33 0.95 0.81 0.62 1.21 1.49 1.21 2.61 0 0.72-0.19 1.35-0.57 1.89-0.38 0.52-0.9 0.91-1.57 1.15zM75.85 8.94h3.16c1.72 0 2.57-0.64 2.57-1.92 0-0.65-0.21-1.12-0.64-1.43s-1.070-0.47-1.93-0.47h-3.16v3.82zM79.34 14.89c0.9 0 1.56-0.16 1.97-0.48s0.62-0.83 0.62-1.52c0-0.67-0.22-1.18-0.63-1.51-0.42-0.34-1.070-0.52-1.96-0.52h-3.49v4.030h3.49z"></path>
<path fill="#2f4faa" style="fill: var(--color2, #2f4faa)" d="M94.85 7.18c0.37 0 0.66 0.11 0.88 0.31s0.33 0.48 0.33 0.83v7.5c0 0.34-0.11 0.61-0.34 0.82-0.22 0.2-0.51 0.3-0.87 0.3-0.35 0-0.63-0.1-0.83-0.29-0.21-0.19-0.32-0.46-0.32-0.8v-0.47c-0.29 0.51-0.69 0.91-1.2 1.19-0.49 0.27-1.060 0.41-1.7 0.41-2.31 0-3.47-1.3-3.47-3.9v-4.76c0-0.35 0.11-0.63 0.33-0.83s0.51-0.31 0.87-0.31c0.37 0 0.67 0.11 0.89 0.31 0.21 0.2 0.33 0.48 0.33 0.83v4.77c0 0.67 0.13 1.17 0.4 1.49s0.7 0.48 1.28 0.48c0.67 0 1.2-0.21 1.6-0.65 0.41-0.45 0.62-1.050 0.62-1.79v-4.3c0-0.35 0.1-0.63 0.32-0.83s0.51-0.31 0.88-0.31z"></path>
<path fill="#2f4faa" style="fill: var(--color2, #2f4faa)" d="M105.050 7.13c1.13 0 1.98 0.33 2.53 0.98 0.56 0.63 0.84 1.61 0.84 2.91v4.76c0 0.36-0.11 0.65-0.33 0.85-0.21 0.2-0.5 0.3-0.87 0.3-0.38 0-0.68-0.1-0.9-0.3s-0.33-0.49-0.33-0.85v-4.62c0-0.74-0.13-1.28-0.41-1.61s-0.71-0.5-1.3-0.5c-0.7 0-1.25 0.22-1.67 0.66-0.42 0.43-0.63 1.020-0.63 1.75v4.32c0 0.36-0.11 0.65-0.33 0.85s-0.51 0.3-0.88 0.3c-0.38 0-0.67-0.1-0.89-0.3-0.21-0.2-0.32-0.49-0.32-0.85v-7.49c0-0.33 0.11-0.6 0.33-0.8 0.22-0.21 0.52-0.31 0.89-0.31 0.33 0 0.6 0.1 0.81 0.3 0.22 0.2 0.33 0.46 0.33 0.78v0.52c0.32-0.52 0.75-0.93 1.29-1.22 0.54-0.28 1.16-0.43 1.84-0.43z"></path>
<path fill="#2f4faa" style="fill: var(--color2, #2f4faa)" d="M120.26 14.95c0.26 0.24 0.4 0.52 0.4 0.83 0 0.3-0.12 0.56-0.33 0.8-0.21 0.23-0.46 0.34-0.75 0.34-0.28 0-0.55-0.12-0.78-0.35l-4.53-4.090v3.3c0 0.37-0.12 0.66-0.36 0.86-0.23 0.19-0.51 0.28-0.86 0.28s-0.64-0.090-0.87-0.28c-0.22-0.2-0.33-0.49-0.33-0.86v-11.54c0-0.38 0.11-0.65 0.33-0.85 0.23-0.2 0.52-0.3 0.87-0.3s0.63 0.1 0.86 0.3c0.24 0.2 0.36 0.47 0.36 0.85v7.27l4.14-3.96c0.23-0.24 0.49-0.36 0.79-0.36 0.29 0 0.55 0.11 0.77 0.33s0.33 0.48 0.33 0.77c0 0.3-0.13 0.57-0.37 0.82l-3.030 2.83 3.36 3.010z"></path>
<path fill="#2f4faa" style="fill: var(--color2, #2f4faa)" d="M130.68 14.24c0.22 0 0.4 0.080 0.53 0.25s0.2 0.39 0.2 0.67c0 0.4-0.24 0.74-0.71 1-0.44 0.25-0.94 0.45-1.49 0.6s-1.080 0.22-1.58 0.22c-1.53 0-2.74-0.44-3.63-1.32-0.89-0.87-1.33-2.070-1.33-3.6 0-0.96 0.19-1.81 0.58-2.55 0.39-0.75 0.94-1.34 1.63-1.75 0.71-0.42 1.5-0.63 2.39-0.63 0.86 0 1.6 0.2 2.23 0.58 0.63 0.37 1.11 0.9 1.45 1.58 0.35 0.68 0.53 1.48 0.53 2.4 0 0.57-0.24 0.84-0.73 0.84h-5.7c0.080 0.89 0.32 1.54 0.75 1.96 0.42 0.42 1.040 0.63 1.85 0.63 0.42 0 0.79-0.050 1.1-0.16 0.32-0.1 0.67-0.24 1.080-0.42 0.38-0.21 0.67-0.3 0.85-0.3zM127.33 8.83c-0.66 0-1.19 0.22-1.58 0.63s-0.62 1-0.7 1.77h4.37c-0.020-0.78-0.22-1.38-0.58-1.78-0.36-0.41-0.87-0.62-1.51-0.62z"></path>
<path fill="#2f4faa" style="fill: var(--color2, #2f4faa)" d="M139.71 7.18c0.34-0.030 0.6 0.040 0.79 0.21 0.2 0.17 0.3 0.42 0.3 0.76s-0.090 0.6-0.26 0.77c-0.16 0.16-0.46 0.27-0.9 0.33l-0.58 0.060c-0.77 0.070-1.33 0.33-1.68 0.77s-0.52 0.98-0.52 1.64v4.060c0 0.37-0.13 0.66-0.36 0.86s-0.52 0.3-0.86 0.3c-0.35 0-0.64-0.1-0.87-0.3-0.22-0.2-0.33-0.49-0.33-0.86v-7.49c0-0.36 0.11-0.63 0.33-0.83 0.23-0.19 0.51-0.28 0.84-0.28 0.35 0 0.62 0.090 0.82 0.28s0.31 0.45 0.31 0.8v0.77c0.25-0.57 0.61-1 1.090-1.31s1.020-0.49 1.61-0.53l0.27-0.010z"></path>
<path fill="#2f4faa" style="fill: var(--color2, #2f4faa)" d="M144.030 16.94c-0.36 0-0.65-0.1-0.88-0.3-0.22-0.2-0.32-0.49-0.32-0.86v-7.46c0-0.38 0.1-0.66 0.32-0.86 0.23-0.19 0.52-0.28 0.88-0.28 0.34 0 0.62 0.090 0.85 0.28 0.24 0.2 0.36 0.48 0.36 0.86v7.46c0 0.37-0.12 0.66-0.36 0.86-0.23 0.2-0.51 0.3-0.85 0.3zM144.030 5.45c-0.44 0-0.79-0.12-1.050-0.36-0.25-0.23-0.38-0.54-0.38-0.93s0.13-0.7 0.38-0.93c0.26-0.23 0.61-0.35 1.050-0.35 0.42 0 0.77 0.12 1.020 0.35 0.27 0.23 0.4 0.54 0.4 0.93s-0.12 0.7-0.38 0.93c-0.26 0.24-0.61 0.36-1.040 0.36z"></path>
<path fill="#2f4faa" style="fill: var(--color2, #2f4faa)" d="M154.21 7.13c1.13 0 1.97 0.33 2.53 0.98 0.56 0.63 0.84 1.61 0.84 2.91v4.76c0 0.36-0.11 0.65-0.33 0.85-0.21 0.2-0.5 0.3-0.87 0.3-0.38 0-0.68-0.1-0.9-0.3s-0.33-0.49-0.33-0.85v-4.62c0-0.74-0.14-1.28-0.41-1.61-0.28-0.33-0.71-0.5-1.3-0.5-0.7 0-1.26 0.22-1.67 0.66-0.43 0.43-0.63 1.020-0.63 1.75v4.32c0 0.36-0.11 0.65-0.33 0.85s-0.52 0.3-0.89 0.3c-0.37 0-0.67-0.1-0.88-0.3s-0.32-0.49-0.32-0.85v-7.49c0-0.33 0.11-0.6 0.33-0.8 0.22-0.21 0.51-0.31 0.89-0.31 0.33 0 0.6 0.1 0.81 0.3 0.22 0.2 0.33 0.46 0.33 0.78v0.52c0.32-0.52 0.75-0.93 1.29-1.22 0.54-0.28 1.15-0.43 1.84-0.43z"></path>
<path fill="#2f4faa" style="fill: var(--color2, #2f4faa)" d="M169.010 7.18c0.36 0 0.65 0.11 0.87 0.31s0.33 0.48 0.33 0.83v7.63c0 1.49-0.41 2.6-1.24 3.36s-2.040 1.14-3.65 1.14c-1.41 0-2.58-0.26-3.53-0.78-0.47-0.29-0.71-0.63-0.71-1.030 0-0.29 0.060-0.52 0.2-0.69 0.14-0.16 0.32-0.24 0.54-0.24 0.12 0 0.25 0.030 0.42 0.080 0.17 0.060 0.34 0.13 0.53 0.22 0.46 0.19 0.87 0.33 1.24 0.43s0.79 0.15 1.27 0.15c1.69 0 2.53-0.82 2.53-2.47v-1.23c-0.29 0.53-0.7 0.94-1.24 1.23s-1.15 0.43-1.85 0.43c-0.83 0-1.56-0.19-2.2-0.59-0.64-0.38-1.14-0.93-1.5-1.64s-0.54-1.53-0.54-2.47c0-0.92 0.17-1.74 0.53-2.46 0.36-0.71 0.86-1.26 1.5-1.65 0.65-0.4 1.38-0.6 2.21-0.6 0.7 0 1.31 0.15 1.85 0.44 0.54 0.28 0.95 0.69 1.24 1.23v-0.52c0-0.33 0.11-0.6 0.33-0.8s0.51-0.31 0.87-0.31zM165.35 14.68c0.78 0 1.39-0.25 1.82-0.76 0.42-0.5 0.64-1.19 0.64-2.070 0-0.89-0.22-1.58-0.64-2.090-0.43-0.5-1.040-0.75-1.82-0.75-0.75 0-1.35 0.25-1.78 0.75-0.44 0.51-0.66 1.2-0.66 2.090 0 0.88 0.22 1.57 0.66 2.070 0.43 0.51 1.030 0.76 1.78 0.76z"></path>
<path fill="#919292" style="fill: var(--color3, #919292)" d="M37.33 30.77c-0.52 0-0.91-0.16-1.17-0.47-0.27-0.32-0.42-0.76-0.45-1.32l0.75-0.2c0.030 0.4 0.1 0.71 0.23 0.96 0.13 0.24 0.34 0.36 0.64 0.36 0.22 0 0.38-0.060 0.5-0.19 0.11-0.12 0.17-0.3 0.17-0.53 0-0.25-0.050-0.46-0.16-0.63-0.1-0.16-0.28-0.34-0.51-0.54l-1.020-0.91c-0.21-0.18-0.36-0.37-0.45-0.57-0.090-0.21-0.13-0.47-0.13-0.78 0-0.44 0.12-0.79 0.37-1.040 0.26-0.25 0.61-0.37 1.060-0.37 0.47 0 0.83 0.13 1.080 0.39 0.25 0.25 0.4 0.65 0.45 1.2l-0.72 0.18c-0.030-0.35-0.1-0.62-0.21-0.81-0.12-0.2-0.32-0.3-0.6-0.3-0.22 0-0.39 0.050-0.5 0.17-0.12 0.11-0.17 0.28-0.17 0.5 0 0.18 0.020 0.33 0.080 0.46 0.060 0.12 0.16 0.25 0.32 0.37l1.020 0.9c0.27 0.24 0.48 0.49 0.63 0.77 0.16 0.28 0.25 0.59 0.25 0.94 0 0.45-0.14 0.81-0.42 1.070-0.27 0.26-0.61 0.39-1.040 0.39z"></path>
<path fill="#919292" style="fill: var(--color3, #919292)" d="M41.47 24.6h0.86v2.64h1.56v-2.64h0.85v6.1h-0.85v-2.86h-1.56v2.86h-0.86v-6.1z"></path>
<path fill="#919292" style="fill: var(--color3, #919292)" d="M47.76 24.6h0.84v6.1h-0.84v-6.1z"></path>
<path fill="#919292" style="fill: var(--color3, #919292)" d="M51.6 24.6h1.52c0.52 0 0.9 0.14 1.14 0.43 0.25 0.28 0.37 0.7 0.37 1.25 0 0.5-0.13 0.88-0.38 1.16-0.26 0.28-0.63 0.41-1.12 0.41h-0.67v2.85h-0.86v-6.1zM52.85 27.25c0.25 0 0.45-0.020 0.58-0.080 0.14-0.060 0.23-0.15 0.29-0.29 0.060-0.13 0.1-0.33 0.1-0.58 0-0.32-0.030-0.55-0.070-0.69-0.040-0.15-0.13-0.26-0.26-0.31-0.14-0.060-0.34-0.090-0.63-0.090h-0.4v2.040h0.39z"></path>
<path fill="#919292" style="fill: var(--color3, #919292)" d="M58.69 30.77c-0.52 0-0.91-0.16-1.17-0.47-0.27-0.32-0.42-0.76-0.45-1.32l0.75-0.2c0.020 0.4 0.1 0.71 0.22 0.96 0.14 0.24 0.35 0.36 0.65 0.36 0.22 0 0.38-0.060 0.5-0.19 0.11-0.12 0.17-0.3 0.17-0.53 0-0.25-0.050-0.46-0.16-0.63-0.11-0.16-0.28-0.34-0.51-0.54l-1.020-0.91c-0.21-0.18-0.36-0.37-0.45-0.57-0.090-0.21-0.13-0.47-0.13-0.78 0-0.44 0.12-0.79 0.37-1.040 0.26-0.25 0.61-0.37 1.060-0.37 0.47 0 0.83 0.13 1.080 0.39 0.25 0.25 0.39 0.65 0.44 1.2l-0.71 0.18c-0.030-0.35-0.1-0.62-0.21-0.81-0.12-0.2-0.32-0.3-0.6-0.3-0.23 0-0.39 0.050-0.5 0.17-0.12 0.11-0.18 0.28-0.18 0.5 0 0.18 0.030 0.33 0.090 0.46 0.060 0.12 0.16 0.25 0.31 0.37l1.030 0.9c0.27 0.24 0.48 0.49 0.63 0.77 0.16 0.28 0.24 0.59 0.24 0.94 0 0.45-0.13 0.81-0.41 1.070-0.27 0.26-0.61 0.39-1.040 0.39z"></path>
<path fill="#919292" style="fill: var(--color3, #919292)" d="M66.57 24.6h1.4c0.55 0 0.96 0.12 1.23 0.37s0.4 0.63 0.4 1.16c0 0.78-0.29 1.21-0.87 1.28 0.36 0.090 0.62 0.26 0.79 0.52 0.17 0.25 0.25 0.59 0.25 1.020 0 0.56-0.13 0.99-0.4 1.29-0.25 0.31-0.65 0.46-1.17 0.46h-1.63v-6.1zM67.93 27.14c0.35 0 0.59-0.080 0.73-0.23 0.13-0.15 0.2-0.41 0.2-0.78 0-0.27-0.040-0.47-0.13-0.59-0.080-0.13-0.2-0.22-0.37-0.26-0.17-0.030-0.41-0.050-0.73-0.050h-0.2v1.91h0.5zM68 30.080c0.25 0 0.44-0.030 0.57-0.11 0.15-0.080 0.25-0.19 0.3-0.36 0.060-0.16 0.090-0.38 0.090-0.66 0-0.39-0.080-0.67-0.24-0.87-0.17-0.19-0.43-0.28-0.79-0.28h-0.5v2.28h0.57z"></path>
<path fill="#919292" style="fill: var(--color3, #919292)" d="M74.11 30.77c-0.42 0-0.75-0.090-1-0.26-0.24-0.17-0.4-0.41-0.49-0.71-0.080-0.31-0.12-0.69-0.12-1.16v-4.040h0.8v4.080c0 0.46 0.050 0.81 0.15 1.060 0.12 0.24 0.34 0.36 0.66 0.36 0.33 0 0.55-0.12 0.66-0.36 0.1-0.25 0.15-0.6 0.15-1.060v-4.080h0.82v4.040c0 0.47-0.050 0.85-0.14 1.16-0.090 0.3-0.25 0.54-0.49 0.71s-0.57 0.26-1 0.26z"></path>
<path fill="#919292" style="fill: var(--color3, #919292)" d="M78.65 24.6h0.59l1.73 4.050v-4.050h0.71v6.1h-0.54l-1.76-4.16v4.16h-0.73v-6.1z"></path>
<path fill="#919292" style="fill: var(--color3, #919292)" d="M84.65 24.6h0.86v2.87l1.4-2.87h0.78l-1.2 2.68 1.4 3.42h-0.82l-1.18-2.86-0.38 0.7v2.16h-0.86v-6.1z"></path>
<path fill="#919292" style="fill: var(--color3, #919292)" d="M90.4 24.6h2.37v0.63h-1.51v2.020h1.23v0.6h-1.23v2.23h1.53v0.62h-2.39v-6.1z"></path>
<path fill="#919292" style="fill: var(--color3, #919292)" d="M95.49 24.6h1.23c0.61 0 1.070 0.13 1.35 0.38 0.3 0.25 0.45 0.66 0.45 1.23 0 0.79-0.26 1.27-0.76 1.43l0.86 3.060h-0.82l-0.8-2.86h-0.66v2.86h-0.85v-6.1zM96.66 27.23c0.37 0 0.63-0.080 0.78-0.22 0.17-0.15 0.25-0.42 0.25-0.8 0-0.25-0.030-0.44-0.090-0.58-0.060-0.15-0.16-0.25-0.3-0.32-0.13-0.060-0.33-0.1-0.58-0.1h-0.38v2.020h0.32z"></path>
<path fill="#919292" style="fill: var(--color3, #919292)" d="M101.46 24.6h0.85v6.1h-0.85v-6.1z"></path>
<path fill="#919292" style="fill: var(--color3, #919292)" d="M105.31 24.6h0.58l1.73 4.050v-4.050h0.72v6.1h-0.55l-1.75-4.16v4.16h-0.73v-6.1z"></path>
<path fill="#919292" style="fill: var(--color3, #919292)" d="M112.76 30.77c-0.55 0-0.95-0.17-1.2-0.52s-0.37-0.87-0.37-1.55v-2.050c0-0.47 0.050-0.86 0.14-1.15 0.11-0.31 0.28-0.54 0.52-0.7 0.23-0.17 0.56-0.26 0.98-0.26 0.56 0 0.97 0.15 1.22 0.44 0.24 0.29 0.37 0.74 0.37 1.35v0.22h-0.8v-0.2c0-0.28-0.020-0.5-0.060-0.65-0.030-0.16-0.1-0.28-0.21-0.36-0.12-0.090-0.28-0.13-0.5-0.13-0.24 0-0.42 0.060-0.53 0.16-0.11 0.11-0.19 0.25-0.23 0.43-0.030 0.18-0.040 0.42-0.040 0.73v2.25c0 0.47 0.060 0.81 0.17 1.020 0.11 0.2 0.33 0.3 0.64 0.3 0.32 0 0.53-0.11 0.65-0.33 0.12-0.23 0.18-0.59 0.18-1.070v-0.42h-0.77v-0.6h1.54v3.020h-0.53l-0.080-0.7c-0.19 0.51-0.56 0.77-1.090 0.77z"></path>
<path fill="#919292" style="fill: var(--color3, #919292)" d="M120.9 24.6h0.72l0.64 4.38 0.83-4.35h0.6l0.83 4.37 0.64-4.4h0.69l-0.98 6.1h-0.62l-0.85-4.52-0.86 4.52h-0.64l-1-6.1z"></path>
<path fill="#919292" style="fill: var(--color3, #919292)" d="M130.17 30.77c-0.59 0-1.020-0.17-1.28-0.5-0.26-0.34-0.39-0.84-0.39-1.49v-2.31c0-0.63 0.13-1.11 0.39-1.43 0.26-0.33 0.69-0.5 1.28-0.5s1.020 0.17 1.28 0.5c0.26 0.32 0.4 0.8 0.4 1.43v2.33c0 0.63-0.14 1.11-0.4 1.45-0.26 0.35-0.69 0.52-1.28 0.52zM130.17 30.1c0.32 0 0.53-0.090 0.65-0.27 0.11-0.19 0.17-0.48 0.17-0.86v-2.67c0-0.37-0.060-0.65-0.17-0.82-0.12-0.18-0.33-0.27-0.65-0.27-0.31 0-0.52 0.090-0.64 0.27-0.11 0.17-0.17 0.45-0.17 0.82v2.67c0 0.38 0.060 0.67 0.17 0.86 0.12 0.18 0.33 0.27 0.64 0.27z"></path>
<path fill="#919292" style="fill: var(--color3, #919292)" d="M134.7 24.6h1.23c0.62 0 1.070 0.13 1.35 0.38 0.3 0.25 0.45 0.66 0.45 1.23 0 0.79-0.26 1.27-0.76 1.43l0.86 3.060h-0.82l-0.8-2.86h-0.65v2.86h-0.86v-6.1zM135.87 27.23c0.37 0 0.63-0.080 0.79-0.22 0.16-0.15 0.24-0.42 0.24-0.8 0-0.25-0.030-0.44-0.090-0.58-0.060-0.15-0.15-0.25-0.3-0.32-0.13-0.060-0.33-0.1-0.58-0.1h-0.37v2.020h0.31z"></path>
<path fill="#919292" style="fill: var(--color3, #919292)" d="M140.63 24.6h0.86v5.48h1.55v0.62h-2.41v-6.1z"></path>
<path fill="#919292" style="fill: var(--color3, #919292)" d="M145.64 24.6h1.33c0.66 0 1.12 0.15 1.39 0.45s0.41 0.77 0.41 1.4v2.25c0 0.68-0.13 1.18-0.4 1.51s-0.71 0.49-1.33 0.49h-1.4v-6.1zM146.97 30.080c0.31 0 0.52-0.050 0.66-0.17 0.13-0.11 0.21-0.27 0.24-0.47s0.050-0.5 0.050-0.9v-1.97c0-0.35-0.030-0.62-0.080-0.8-0.040-0.18-0.12-0.32-0.25-0.4-0.14-0.090-0.35-0.14-0.63-0.14h-0.46v4.85h0.47z"></path>
<path fill="#919292" style="fill: var(--color3, #919292)" d="M151.43 24.6h0.72l0.64 4.38 0.83-4.35h0.6l0.83 4.37 0.64-4.4h0.69l-0.98 6.1h-0.62l-0.85-4.52-0.85 4.52h-0.65l-1-6.1z"></path>
<path fill="#919292" style="fill: var(--color3, #919292)" d="M159.19 24.6h0.84v6.1h-0.84v-6.1z"></path>
<path fill="#919292" style="fill: var(--color3, #919292)" d="M163.030 24.6h1.33c0.66 0 1.12 0.15 1.39 0.45s0.41 0.77 0.41 1.4v2.25c0 0.68-0.13 1.18-0.4 1.51-0.26 0.33-0.71 0.49-1.33 0.49h-1.4v-6.1zM164.36 30.080c0.31 0 0.52-0.050 0.66-0.17 0.13-0.11 0.21-0.27 0.24-0.47s0.050-0.5 0.050-0.9v-1.97c0-0.35-0.030-0.62-0.080-0.8-0.030-0.18-0.12-0.32-0.25-0.4-0.14-0.090-0.35-0.14-0.63-0.14h-0.46v4.85h0.47z"></path>
<path fill="#919292" style="fill: var(--color3, #919292)" d="M169.030 24.6h2.37v0.63h-1.52v2.020h1.23v0.6h-1.23v2.23h1.53v0.62h-2.38v-6.1z"></path>
<path fill="#2f4faa" style="fill: var(--color2, #2f4faa)" d="M13.54 31.88c-0.12-0.060-0.35-0.11-0.52-0.11-0.44-0.010-3.17-0.88-3.69-1.17-0.24-0.14-0.85-0.47-1.34-0.74-1.31-0.72-3.090-2.25-4.24-3.64-0.98-1.19-2.47-3.73-2.64-4.5-0.040-0.18-0.22-0.79-0.4-1.35-0.54-1.67-0.71-4.21-0.46-6.53 0.29-2.56 1.61-5.75 3.13-7.57 0.28-0.34 0.61-0.74 0.73-0.89 0.29-0.36 1.030-1.11 1.39-1.4 0.15-0.12 0.55-0.45 0.89-0.73 0.33-0.28 0.78-0.61 1-0.74 1.14-0.68 2.55-1.4 2.99-1.54 2.97-0.89 3.51-0.97 5.66-0.97 1.61 0 3.22 0.17 3.93 0.41 0.25 0.090 0.82 0.26 1.28 0.4 0.82 0.24 1.95 0.76 3.080 1.44 0.33 0.19 0.62 0.35 0.65 0.35 0.040 0 0.38 0.26 0.75 0.58s0.91 0.78 1.21 1.010c0.71 0.57 2.43 2.72 2.95 3.69 0.23 0.43 0.54 1.010 0.7 1.28 0.3 0.54 1.020 2.74 1.22 3.7 0.21 1.050 0.24 4.75 0.040 5.87-0.68 3.97-2.7 7.36-5.96 9.99-0.81 0.65-1.13 0.85-2.8 1.76-0.8 0.43-2.36 0.97-3.67 1.25-0.89 0.2-5.51 0.31-5.88 0.15zM18.67 30.090c1.46-0.75 3.1-2.46 4.070-4.27 0.23-0.42 0.38-0.83 0.35-0.92-0.080-0.21-6.27-0.23-6.48-0.020-0.14 0.15-0.2 5.55-0.060 5.69 0.18 0.18 1.36-0.090 2.12-0.48zM15.15 27.81c0.030-1.47 0.010-2.77-0.040-2.88-0.080-0.19-0.18-0.2-0.77-0.14-0.36 0.040-1.76 0.070-3.090 0.070-2.32 0-2.42 0.010-2.42 0.22 0 0.11 0.040 0.24 0.1 0.27 0.050 0.040 0.23 0.33 0.4 0.65 1.17 2.27 3.86 4.57 5.26 4.51l0.5-0.030 0.060-2.67zM22.61 29.28c0.32-0.2 0.82-0.49 1.12-0.64 1.23-0.63 4.22-3.45 4.010-3.78-0.11-0.17-2.89-0.15-3.020 0.030-0.060 0.070-0.38 0.64-0.69 1.27-0.32 0.62-0.98 1.63-1.46 2.25s-0.88 1.16-0.88 1.18c0 0.15 0.41 0.010 0.92-0.31zM9.92 29.11c-0.080-0.12-0.46-0.61-0.83-1.1-0.37-0.5-0.89-1.32-1.15-1.83-0.7-1.39-0.6-1.32-2.13-1.32-1.1 0-1.31 0.030-1.31 0.17 0 0.22 1.96 2.2 2.82 2.84 1.42 1.070 3.050 1.85 2.6 1.24zM6.67 23.4c0.040-0.060-0.010-0.33-0.1-0.58-0.28-0.76-0.82-3.72-0.89-4.91-0.040-0.6-0.12-1.16-0.19-1.25-0.1-0.12-0.53-0.15-1.92-0.15-0.98 0-1.86 0.050-1.95 0.1-0.48 0.31 0.28 3.94 1.2 5.74 0.62 1.2 0.55 1.17 2.28 1.17 0.95 0 1.52-0.040 1.57-0.12zM15.15 23.23c0.070-0.17 0.1-1.56 0.080-3.48l-0.030-3.19-3.99-0.020c-2.2-0.020-4.060 0.010-4.15 0.070-0.13 0.080-0.13 0.33-0.030 1.53 0.2 2.3 0.85 5.030 1.27 5.29 0.080 0.050 1.63 0.090 3.44 0.090h3.3l0.11-0.29zM23.84 23.16c0.61-0.98 1.48-6.34 1.070-6.6-0.17-0.1-8.13-0.060-8.23 0.040s-0.25 6.15-0.16 6.52l0.070 0.29h7.090l0.16-0.25zM28.87 23.16c0.44-0.51 0.82-1.32 1.24-2.72 0.51-1.68 0.8-3.78 0.55-3.94s-3.9-0.12-4.12 0.040c-0.14 0.11-0.21 0.46-0.29 1.57-0.13 1.56-0.5 3.7-0.74 4.28-0.090 0.2-0.16 0.51-0.16 0.69v0.33h1.65c1.56 0 1.65-0.010 1.87-0.25zM5.54 15.050c0.070-0.1 0.15-0.56 0.16-1.010 0.050-1.15 0.63-4.34 0.89-4.86 0.22-0.42 0.060-0.46-1.54-0.46-1.39 0-1.57 0.020-1.76 0.22-0.32 0.32-0.73 1.17-1.070 2.23-0.16 0.52-0.37 1.15-0.45 1.42-0.23 0.74-0.33 2.32-0.15 2.53 0.12 0.15 0.42 0.17 1.97 0.15 1.57-0.020 1.83-0.060 1.95-0.22zM15.26 12.060c0.030-1.69 0.010-3.13-0.040-3.2-0.080-0.11-0.9-0.14-3.49-0.14-1.88 0-3.45 0.040-3.52 0.080-0.21 0.14-0.5 1.040-0.78 2.33-0.28 1.35-0.54 3.63-0.44 3.88 0.050 0.14 0.67 0.16 4.14 0.14l4.070-0.030 0.060-3.060zM24.88 15.040c0.28-0.35-0.29-4.27-0.82-5.71l-0.21-0.56h-7.2l-0.060 3.040c-0.030 1.68-0.010 3.12 0.030 3.2 0.13 0.23 8.090 0.24 8.26 0.030zM30.59 15.040c0.17-0.13 0.17-0.25 0.040-1.2-0.23-1.8-1.31-4.74-1.88-5.15-0.19-0.14-3.27-0.040-3.41 0.11-0.1 0.1-0.080 0.23 0.060 0.52 0.1 0.22 0.26 0.82 0.35 1.32 0.080 0.5 0.21 1.090 0.27 1.31 0.060 0.21 0.15 0.95 0.19 1.65 0.040 0.86 0.12 1.31 0.22 1.41 0.21 0.22 3.89 0.24 4.16 0.030zM7.080 7.35c0.090-0.070 0.44-0.66 0.76-1.3 0.33-0.65 0.96-1.64 1.41-2.22 0.46-0.6 0.77-1.090 0.71-1.14-0.12-0.13-1.96 0.93-2.84 1.64-1.28 1.030-2.89 2.76-2.8 3 0.080 0.22 2.49 0.23 2.76 0.020zM15.22 7.26c0.12-0.1 0.15-0.72 0.15-2.95v-2.83l-0.28-0.060c-0.36-0.1-0.67-0.010-1.66 0.45-1.030 0.49-2.28 1.56-3.15 2.71-0.81 1.070-1.67 2.67-1.49 2.78 0.21 0.13 6.26 0.040 6.43-0.1zM23.18 7.29c0.090-0.15-0.85-1.84-1.53-2.75-0.86-1.14-1.96-2.090-3.030-2.61-1.030-0.5-1.37-0.61-1.67-0.51-0.2 0.060-0.22 0.24-0.29 2.86-0.060 2.040-0.040 2.83 0.050 2.95 0.11 0.12 0.73 0.15 3.27 0.15 1.73 0 3.17-0.040 3.2-0.090zM27.84 7.29c0.080-0.14-1.21-1.63-2.050-2.36-1.11-0.96-1.54-1.27-2.41-1.73l-1.17-0.63c-0.19-0.1-0.39-0.19-0.43-0.19-0.13-0.010 0.31 0.66 0.99 1.52 0.35 0.44 0.94 1.38 1.31 2.080 0.36 0.71 0.74 1.31 0.83 1.33 0.33 0.090 2.87 0.070 2.93-0.020z"></path>
</symbol>
<symbol id="icon-adskill-logo" viewBox="0 0 138 32">
<path fill="#2b2b2b" style="fill: var(--color4, #2b2b2b)" d="M124.7 31.63c-1.91 0-3.39-0.54-4.44-1.62-1.030-1.070-1.54-2.57-1.54-4.48v-24.070h2.87v23.83c0 1.26 0.3 2.23 0.89 2.91 0.59 0.64 1.48 0.96 2.66 0.96 0.76 0 1.4-0.12 1.94-0.36l0.2 2.38c-0.83 0.3-1.69 0.45-2.58 0.45z"></path>
<path fill="#2b2b2b" style="fill: var(--color4, #2b2b2b)" d="M113.65 31.63c-1.91 0-3.39-0.54-4.44-1.62-1.030-1.070-1.54-2.57-1.54-4.48v-24.070h2.87v23.83c0 1.26 0.3 2.23 0.89 2.91 0.59 0.64 1.48 0.96 2.66 0.96 0.76 0 1.4-0.12 1.94-0.36l0.2 2.38c-0.83 0.3-1.69 0.45-2.58 0.45z"></path>
<path fill="#2b2b2b" style="fill: var(--color4, #2b2b2b)" d="M98.24 10.18h2.87v21.25h-2.87v-21.25z"></path>
<path fill="#2b2b2b" style="fill: var(--color4, #2b2b2b)" d="M83.59 20.76l-5.010 4.61v6.060h-2.86v-29.97h2.86v20.31l12.68-11.59h3.56l-9.090 8.69 9.94 12.56h-3.52l-8.56-10.67z"></path>
<path fill="#2b2b2b" style="fill: var(--color4, #2b2b2b)" d="M63.060 31.63c-1.72 0-3.37-0.24-4.96-0.73-1.56-0.51-2.79-1.14-3.68-1.89l1.29-2.27c0.89 0.7 2.010 1.28 3.36 1.74 1.34 0.43 2.74 0.65 4.2 0.65 1.94 0 3.36-0.3 4.28-0.89 0.94-0.62 1.41-1.48 1.41-2.59 0-0.78-0.25-1.38-0.77-1.81-0.51-0.46-1.15-0.8-1.94-1.010-0.78-0.25-1.81-0.47-3.1-0.69-1.73-0.32-3.11-0.65-4.16-0.97-1.050-0.35-1.96-0.93-2.71-1.74-0.73-0.8-1.090-1.92-1.090-3.35 0-1.77 0.74-3.23 2.22-4.36s3.54-1.7 6.18-1.7c1.37 0 2.75 0.19 4.12 0.57 1.37 0.35 2.5 0.82 3.39 1.41l-1.25 2.31c-1.75-1.22-3.84-1.82-6.26-1.82-1.83 0-3.22 0.32-4.16 0.97-0.92 0.64-1.37 1.49-1.37 2.54 0 0.81 0.25 1.46 0.76 1.94 0.54 0.48 1.2 0.85 1.98 1.090 0.78 0.22 1.86 0.45 3.23 0.69 1.7 0.32 3.060 0.64 4.080 0.97 1.030 0.32 1.9 0.87 2.63 1.65 0.72 0.78 1.090 1.86 1.090 3.23 0 1.86-0.78 3.34-2.34 4.45-1.54 1.070-3.68 1.61-6.43 1.61z"></path>
<path fill="#0621e8" style="fill: var(--color5, #0621e8)" d="M103.13 3.57c0 1.82-1.47 3.3-3.29 3.3-1.83 0-3.3-1.48-3.3-3.3s1.47-3.3 3.3-3.3c1.82 0 3.29 1.48 3.29 3.3z"></path>
<path fill="#0621e8" style="fill: var(--color5, #0621e8)" d="M137.38 28.34c0 1.82-1.48 3.3-3.3 3.3s-3.3-1.48-3.3-3.3c0-1.82 1.48-3.3 3.3-3.3s3.3 1.48 3.3 3.3z"></path>
<path fill="#2b2b2b" style="fill: var(--color4, #2b2b2b)" d="M50.42 1.46v29.97h-6.020v-2.51c-1.56 1.89-3.82 2.83-6.78 2.83-2.050 0-3.9-0.46-5.57-1.37-1.65-0.92-2.94-2.22-3.88-3.92s-1.41-3.66-1.41-5.9c0-2.23 0.47-4.2 1.41-5.89 0.94-1.7 2.23-3.010 3.88-3.92 1.67-0.92 3.52-1.37 5.57-1.37 2.77 0 4.94 0.87 6.5 2.62v-10.54h6.3zM38.71 26.58c1.59 0 2.91-0.54 3.96-1.62 1.050-1.1 1.57-2.57 1.57-4.4s-0.52-3.28-1.57-4.36c-1.050-1.1-2.37-1.65-3.96-1.65-1.62 0-2.95 0.55-4 1.65-1.050 1.080-1.57 2.53-1.57 4.36s0.52 3.3 1.57 4.4c1.050 1.080 2.38 1.62 4 1.62z"></path>
<path fill="#2b2b2b" style="fill: var(--color4, #2b2b2b)" d="M23.87 9.7v21.73h-6.020v-2.51c-1.56 1.89-3.82 2.83-6.78 2.83-2.050 0-3.9-0.46-5.57-1.37-1.65-0.92-2.94-2.22-3.88-3.92s-1.41-3.66-1.41-5.9c0-2.23 0.47-4.2 1.41-5.89 0.94-1.7 2.23-3.010 3.88-3.92 1.67-0.92 3.52-1.37 5.57-1.37 2.77 0 4.94 0.87 6.5 2.62v-2.3h6.3zM12.16 26.58c1.59 0 2.91-0.54 3.96-1.61 1.050-1.11 1.57-2.58 1.57-4.41s-0.52-3.28-1.57-4.36c-1.050-1.1-2.37-1.65-3.96-1.65-1.62 0-2.95 0.55-4 1.65-1.050 1.080-1.57 2.53-1.57 4.36s0.52 3.3 1.57 4.41c1.050 1.070 2.38 1.61 4 1.61z"></path>
</symbol>
<symbol id="icon-Vector" viewBox="0 0 171 32">
<path d="M141.483 0h14.603c1.344 0 2.635 0.149 3.872 0.448 1.237 0.309 2.389 0.736 3.467 1.301 1.077 0.555 2.059 1.227 2.955 2.005 0.885 0.779 1.653 1.643 2.283 2.603 0.64 0.949 1.131 1.963 1.483 3.051 0.341 1.088 0.523 2.219 0.523 3.392 0 1.76-0.384 3.413-1.152 4.971-0.757 1.547-1.803 2.912-3.125 4.064-1.323 1.163-2.869 2.080-4.64 2.752-1.771 0.661-3.659 1.003-5.664 1.003h-7.296v6.4h-7.307v-31.989zM148.811 6.4v12.8h7.616c0.96 0 1.877-0.16 2.72-0.501 0.853-0.331 1.6-0.789 2.24-1.365 0.629-0.587 1.141-1.269 1.504-2.048 0.373-0.779 0.555-1.611 0.555-2.485s-0.181-1.707-0.555-2.485c-0.363-0.789-0.875-1.461-1.504-2.048-0.64-0.576-1.387-1.035-2.24-1.365-0.843-0.341-1.76-0.501-2.72-0.501h-7.616zM102.453 0h14.603c1.344 0 2.624 0.149 3.861 0.448 1.237 0.309 2.4 0.736 3.477 1.301 1.077 0.555 2.059 1.227 2.944 2.005 0.896 0.779 1.653 1.643 2.293 2.603 0.64 0.949 1.131 1.963 1.472 3.051 0.352 1.088 0.523 2.219 0.523 3.392 0 1.76-0.384 3.413-1.141 4.971-0.768 1.547-1.803 2.912-3.125 4.064-1.323 1.163-2.869 2.080-4.651 2.752-1.771 0.661-3.659 1.003-5.653 1.003h-7.296v6.4h-7.307v-31.989zM109.771 6.4v12.8h7.627c0.96 0 1.867-0.16 2.72-0.501 0.853-0.331 1.589-0.789 2.229-1.365 0.64-0.587 1.141-1.269 1.515-2.048 0.363-0.779 0.555-1.611 0.555-2.485s-0.192-1.707-0.555-2.485c-0.373-0.789-0.875-1.461-1.515-2.048-0.64-0.576-1.376-1.035-2.229-1.365-0.853-0.341-1.76-0.501-2.72-0.501h-7.627zM80.501 31.989h7.296v-31.989h-7.296v31.989zM62.208 0l-9.909 12.8h-3.509v-12.8h-7.317v31.979l7.317 0.021v-12.8h3.659l9.76 12.779h8.533l-12.203-15.979 12.203-16h-8.533zM10.933 0c-1.515 0-2.923 0.256-4.245 0.757s-2.485 1.195-3.477 2.069c-0.992 0.864-1.771 1.877-2.347 3.040s-0.864 2.4-0.864 3.723c0 1.333 0.288 2.571 0.864 3.744 0.576 1.163 1.355 2.187 2.347 3.051 0.992 0.875 2.155 1.557 3.477 2.069 1.323 0.501 2.731 0.757 4.245 0.757h7.296c0.512 0 0.981 0.085 1.429 0.245 0.437 0.16 0.821 0.395 1.152 0.683s0.587 0.629 0.779 1.013c0.181 0.384 0.277 0.8 0.277 1.248s-0.096 0.864-0.277 1.248c-0.192 0.384-0.448 0.725-0.779 1.013-0.331 0.299-0.715 0.523-1.152 0.683-0.448 0.16-0.917 0.245-1.429 0.245h-15.797v6.411h15.797c1.515 0 2.933-0.256 4.267-0.768 1.323-0.501 2.485-1.195 3.477-2.059 0.992-0.875 1.771-1.888 2.347-3.051 0.565-1.152 0.843-2.4 0.843-3.723s-0.277-2.571-0.843-3.733c-0.576-1.173-1.355-2.187-2.347-3.061-0.992-0.864-2.155-1.557-3.477-2.048-1.333-0.501-2.752-0.747-4.267-0.747h-7.296c-0.512 0-0.981-0.085-1.429-0.245-0.437-0.171-0.821-0.395-1.152-0.683s-0.587-0.629-0.779-1.024c-0.181-0.395-0.277-0.821-0.277-1.269 0-0.437 0.096-0.864 0.277-1.248 0.192-0.384 0.448-0.725 0.779-1.013s0.715-0.512 1.152-0.683c0.448-0.16 0.917-0.245 1.429-0.245h15.808v-6.4h-15.808z"></path>
</symbol>
<symbol id="icon-creative-valley-png" viewBox="0 0 86 32">
<path d="M0 0h86.238v32h-86.238v-32z"></path>
</symbol>
<symbol id="icon-image-3" viewBox="0 0 18 32">
<path d="M-0 0h18.233v32h-18.233v-32z"></path>
</symbol>
<symbol id="icon-image-4" viewBox="0 0 84 32">
<path d="M0 0h83.663v32h-83.663v-32z"></path>
</symbol>
<symbol id="icon-Forte-Group" viewBox="0 0 95 32">
<path fill="#2f3d46" style="fill: var(--color6, #2f3d46)" d="M93.4 20.36c-1.21 0.4-2.41 0.68-3.61 0.86-1.2 0.17-2.42 0.26-3.67 0.26-1.6 0-3.030-0.17-4.28-0.51-1.25-0.35-2.3-0.86-3.15-1.52-0.86-0.66-1.51-1.46-1.96-2.42-0.44-0.95-0.67-2.030-0.67-3.23 0-1.12 0.23-2.16 0.67-3.11 0.46-0.96 1.1-1.79 1.93-2.49 0.83-0.71 1.83-1.26 3.010-1.66 1.17-0.4 2.48-0.6 3.92-0.6 1.34 0 2.55 0.18 3.66 0.55 1.1 0.36 2.060 0.89 2.85 1.6s1.41 1.58 1.84 2.62c0.44 1.040 0.66 2.24 0.66 3.59v0.99h-14.45c0.13 0.47 0.34 0.89 0.63 1.28 0.3 0.39 0.7 0.72 1.21 0.99 0.5 0.27 1.12 0.48 1.85 0.64 0.74 0.15 1.63 0.22 2.65 0.22 0.73 0 1.44-0.040 2.14-0.13 0.69-0.090 1.34-0.21 1.95-0.35 0.6-0.15 1.15-0.32 1.63-0.5 0.49-0.18 0.89-0.36 1.19-0.54v3.46zM90.66 12.37c-0.030-0.37-0.14-0.74-0.33-1.13-0.17-0.39-0.46-0.75-0.85-1.070-0.39-0.31-0.9-0.57-1.54-0.77-0.63-0.21-1.42-0.31-2.37-0.31-0.89 0-1.66 0.11-2.3 0.33-0.65 0.22-1.19 0.5-1.64 0.83-0.43 0.33-0.77 0.68-1.010 1.060s-0.4 0.74-0.47 1.060h10.51z"></path>
<path fill="#2f3d46" style="fill: var(--color6, #2f3d46)" d="M68.4 9.53v11.56h-3.96v-11.56h-6.23v-3.21h16.42v3.21h-6.23z"></path>
<path fill="#2f3d46" style="fill: var(--color6, #2f3d46)" d="M43.94 21.090h-3.96v-14.77h9.93c1.070 0 1.97 0.11 2.71 0.33 0.75 0.22 1.35 0.54 1.82 0.95 0.47 0.4 0.8 0.9 1.010 1.48 0.21 0.57 0.32 1.21 0.32 1.92 0 0.63-0.090 1.17-0.27 1.64-0.17 0.46-0.4 0.86-0.7 1.2-0.29 0.33-0.63 0.61-1.030 0.84-0.39 0.23-0.8 0.42-1.23 0.57l4.8 5.84h-4.63l-4.44-5.44h-4.33v5.44zM51.77 10.98c0-0.28-0.040-0.53-0.12-0.73-0.070-0.2-0.2-0.36-0.38-0.48-0.19-0.13-0.44-0.23-0.75-0.28-0.31-0.060-0.69-0.090-1.15-0.090h-5.43v3.16h5.43c0.46 0 0.84-0.030 1.15-0.080 0.31-0.060 0.56-0.15 0.75-0.27 0.18-0.13 0.31-0.3 0.38-0.5 0.080-0.2 0.12-0.44 0.12-0.73z"></path>
<path fill="#2f3d46" style="fill: var(--color6, #2f3d46)" d="M36.37 13.71c0 1.27-0.23 2.39-0.69 3.37-0.46 0.96-1.12 1.77-1.98 2.43-0.87 0.65-1.91 1.14-3.14 1.48-1.23 0.33-2.6 0.49-4.13 0.49s-2.92-0.16-4.16-0.49c-1.23-0.34-2.28-0.83-3.15-1.48-0.86-0.66-1.53-1.47-2-2.43-0.47-0.98-0.71-2.1-0.71-3.37s0.24-2.38 0.71-3.35c0.47-0.98 1.14-1.79 2-2.44 0.87-0.65 1.92-1.15 3.15-1.48 1.24-0.33 2.63-0.5 4.16-0.5s2.9 0.17 4.13 0.5c1.23 0.33 2.27 0.83 3.14 1.48 0.86 0.65 1.52 1.46 1.98 2.44 0.46 0.97 0.69 2.080 0.69 3.35zM32.37 13.71c0-0.55-0.090-1.1-0.26-1.64-0.18-0.55-0.49-1.050-0.93-1.49-0.44-0.43-1.050-0.79-1.82-1.060s-1.75-0.41-2.93-0.41c-0.8 0-1.5 0.070-2.11 0.19-0.6 0.13-1.12 0.3-1.57 0.52-0.44 0.22-0.81 0.48-1.11 0.79-0.29 0.29-0.53 0.61-0.71 0.95s-0.31 0.69-0.39 1.070c-0.070 0.36-0.1 0.72-0.1 1.080 0 0.37 0.030 0.74 0.1 1.11 0.080 0.37 0.21 0.73 0.39 1.070s0.42 0.66 0.71 0.95c0.3 0.29 0.67 0.55 1.11 0.77 0.45 0.22 0.97 0.39 1.57 0.52 0.61 0.12 1.31 0.18 2.11 0.18 1.18 0 2.16-0.13 2.93-0.41 0.77-0.27 1.38-0.62 1.82-1.060s0.75-0.93 0.93-1.47c0.17-0.55 0.26-1.11 0.26-1.66z"></path>
<path fill="#2f3d46" style="fill: var(--color6, #2f3d46)" d="M3.96 9.47v2.57h9.53v3.14h-9.53v5.91h-3.96v-14.77h14.010v3.15h-10.050z"></path>
<path fill="#2f3d46" style="fill: var(--color6, #2f3d46)" d="M91.050 30h-1.36v-0.86h1.36c0.21 0 0.38-0.040 0.51-0.11s0.23-0.17 0.29-0.29c0.060-0.13 0.090-0.27 0.090-0.43s-0.030-0.31-0.090-0.44c-0.060-0.14-0.16-0.25-0.29-0.34-0.13-0.080-0.3-0.12-0.51-0.12h-0.98v4.51h-1.1v-5.38h2.080c0.42 0 0.77 0.080 1.070 0.23s0.53 0.36 0.69 0.62c0.16 0.27 0.24 0.57 0.24 0.92 0 0.34-0.080 0.64-0.24 0.9-0.16 0.25-0.39 0.45-0.69 0.59-0.3 0.13-0.65 0.2-1.070 0.2z"></path>
<path fill="#2f3d46" style="fill: var(--color6, #2f3d46)" d="M79.82 26.54h1.1v3.56c0 0.41-0.090 0.76-0.26 1.040-0.18 0.28-0.42 0.5-0.73 0.64-0.3 0.14-0.65 0.21-1.050 0.21s-0.76-0.070-1.070-0.21c-0.3-0.14-0.55-0.36-0.72-0.64-0.18-0.28-0.26-0.63-0.26-1.040v-3.56h1.1v3.56c0 0.24 0.040 0.43 0.11 0.59 0.080 0.15 0.19 0.26 0.33 0.33s0.31 0.11 0.51 0.11c0.2 0 0.37-0.040 0.51-0.11s0.25-0.18 0.32-0.33c0.080-0.16 0.11-0.35 0.11-0.59v-3.56z"></path>
<path fill="#2f3d46" style="fill: var(--color6, #2f3d46)" d="M68.94 29.11v0.25c0 0.41-0.050 0.78-0.16 1.1-0.11 0.33-0.27 0.6-0.47 0.83s-0.44 0.4-0.72 0.52c-0.27 0.12-0.58 0.19-0.92 0.19-0.33 0-0.64-0.070-0.92-0.19s-0.52-0.29-0.72-0.52c-0.2-0.23-0.36-0.5-0.47-0.83-0.11-0.32-0.17-0.69-0.17-1.1v-0.25c0-0.42 0.060-0.78 0.17-1.11 0.11-0.32 0.26-0.6 0.46-0.83 0.21-0.23 0.45-0.4 0.72-0.52 0.28-0.12 0.59-0.18 0.92-0.18 0.34 0 0.65 0.060 0.92 0.18 0.28 0.12 0.52 0.29 0.72 0.52 0.21 0.23 0.36 0.51 0.47 0.83 0.12 0.33 0.17 0.69 0.17 1.11zM67.83 29.36v-0.26c0-0.29-0.030-0.54-0.080-0.76-0.050-0.21-0.12-0.4-0.22-0.54-0.1-0.15-0.23-0.26-0.37-0.34-0.15-0.070-0.31-0.11-0.5-0.11-0.18 0-0.35 0.040-0.49 0.11-0.14 0.080-0.27 0.19-0.37 0.34-0.090 0.14-0.17 0.33-0.22 0.54-0.050 0.22-0.080 0.47-0.080 0.76v0.26c0 0.28 0.030 0.53 0.080 0.75s0.13 0.4 0.23 0.55c0.1 0.15 0.22 0.26 0.36 0.34 0.15 0.080 0.31 0.12 0.5 0.12s0.35-0.040 0.5-0.12c0.14-0.080 0.26-0.19 0.36-0.34s0.17-0.33 0.22-0.55c0.050-0.22 0.080-0.47 0.080-0.75z"></path>
<path fill="#2f3d46" style="fill: var(--color6, #2f3d46)" d="M52.6 26.54h1.99c0.41 0 0.76 0.060 1.060 0.18 0.29 0.13 0.52 0.31 0.68 0.55s0.24 0.54 0.24 0.89c0 0.29-0.050 0.54-0.15 0.74-0.1 0.21-0.23 0.38-0.41 0.52-0.17 0.13-0.38 0.24-0.61 0.32l-0.35 0.19h-1.73l-0.010-0.87h1.29c0.19 0 0.35-0.030 0.48-0.1s0.22-0.16 0.29-0.29c0.060-0.12 0.1-0.26 0.1-0.43s-0.040-0.32-0.1-0.44c-0.060-0.13-0.16-0.23-0.29-0.29-0.13-0.070-0.29-0.1-0.49-0.1h-0.89v4.51h-1.1v-5.38zM55.59 31.92l-1.22-2.4 1.16-0.010 1.23 2.36v0.050h-1.17z"></path>
<path fill="#2f3d46" style="fill: var(--color6, #2f3d46)" d="M44.57 29.11v2.13c-0.080 0.1-0.21 0.21-0.38 0.33-0.18 0.12-0.4 0.22-0.67 0.3-0.28 0.080-0.61 0.12-1 0.12-0.34 0-0.66-0.050-0.94-0.17-0.29-0.11-0.53-0.28-0.74-0.5-0.2-0.22-0.36-0.49-0.47-0.81-0.11-0.33-0.16-0.7-0.16-1.11v-0.34c0-0.41 0.050-0.78 0.16-1.1s0.26-0.6 0.46-0.82c0.19-0.22 0.43-0.39 0.7-0.5 0.28-0.12 0.58-0.18 0.92-0.18 0.46 0 0.84 0.080 1.14 0.23s0.53 0.36 0.69 0.63c0.15 0.27 0.25 0.57 0.29 0.92h-1.070c-0.030-0.19-0.080-0.35-0.15-0.48-0.080-0.14-0.19-0.24-0.33-0.32-0.14-0.070-0.32-0.11-0.54-0.11-0.19 0-0.35 0.040-0.49 0.11-0.15 0.080-0.27 0.19-0.36 0.33-0.1 0.15-0.18 0.33-0.23 0.54s-0.070 0.46-0.070 0.75v0.34c0 0.28 0.020 0.53 0.080 0.75 0.050 0.21 0.13 0.39 0.23 0.54 0.11 0.15 0.24 0.26 0.4 0.33s0.34 0.11 0.55 0.11c0.17 0 0.32-0.020 0.43-0.040 0.12-0.030 0.21-0.070 0.28-0.11 0.080-0.050 0.13-0.090 0.17-0.13v-0.95h-1v-0.79h2.1z"></path>
<path fill="#16baff" style="fill: var(--color7, #16baff)" d="M87.74 0l1.48 3.090-5.51 2.030-0.96-2.020 4.99-3.1z"></path>
</symbol>

</defs>
</svg>
